<svg width="320" height="320" viewBox="0 0 320 320" fill="none" xmlns="http://www.w3.org/2000/svg">
  <g fill="#ff6a00" stroke="#10141c" stroke-width="8" stroke-linejoin="round">
    <path d="M85 182c-15 16-24 40-22 63 1 22 10 40 27 53 15 11 37 16 61 8-8-13-12-30-11-47 1-24 9-43 27-57l-28-11c-8-3-15-7-22-13l-32 4z"/>
    <path d="M164 142c12-35 44-57 80-59 20-2 39 4 54 16-18 5-34 17-44 34l-90 9z"/>
    <path d="M170 156c13-3 27 1 36 11 11 12 15 29 11 45-5 19-20 37-45 50-27 13-59 14-82-1 14-7 27-19 35-37 9-19 9-42-1-62l46-6z"/>
    <path d="M200 146c20-13 47-8 63 8 18 17 22 43 12 64-12 24-42 42-74 42 18-15 27-35 28-56 1-22-9-43-29-58z"/>
    <path d="M118 127c-5 17-17 29-34 37l-16 7c-8-20-7-40 4-58 10-17 27-29 47-34 5 15 5 32-1 48z"/>
    <path d="M116 82c20-6 43-1 60 14-16 3-30 12-41 25-8-13-13-25-19-39z"/>
    <path d="M219 44h50c16 0 29 13 29 29v12c0 16-13 29-29 29h-50c-16 0-29-13-29-29V73c0-16 13-29 29-29z"/>
    <path d="M230 66v24M218 78h24"/>
    <circle cx="266" cy="68" r="7"/>
    <circle cx="278" cy="90" r="7"/>
  </g>
</svg>
